<mxfile host="app.diagrams.net" agent="Mozilla/5.0 (Windows NT 10.0; Win64; x64) AppleWebKit/537.36 (KHTML, like Gecko) Chrome/134.0.0.0 Safari/537.36" version="26.1.3">
  <diagram name="페이지-1" id="HD3yNyKkYkVblsuok7lw">
    <mxGraphModel dx="1401" dy="514" grid="1" gridSize="10" guides="1" tooltips="1" connect="1" arrows="1" fold="1" page="1" pageScale="1" pageWidth="827" pageHeight="1169" math="0" shadow="0">
      <root>
        <mxCell id="0" />
        <mxCell id="1" parent="0" />
        <mxCell id="duerMGeqgHKZfetzCVLF-1" value="리전" style="points=[[0,0],[0.25,0],[0.5,0],[0.75,0],[1,0],[1,0.25],[1,0.5],[1,0.75],[1,1],[0.75,1],[0.5,1],[0.25,1],[0,1],[0,0.75],[0,0.5],[0,0.25]];outlineConnect=0;gradientColor=none;html=1;whiteSpace=wrap;fontSize=12;fontStyle=0;container=1;pointerEvents=0;collapsible=0;recursiveResize=0;shape=mxgraph.aws4.group;grIcon=mxgraph.aws4.group_region;strokeColor=#00A4A6;fillColor=none;verticalAlign=top;align=left;spacingLeft=30;fontColor=#147EBA;dashed=1;strokeWidth=1;" parent="1" vertex="1">
          <mxGeometry y="30" width="830" height="620" as="geometry" />
        </mxCell>
        <mxCell id="duerMGeqgHKZfetzCVLF-3" value="VPC" style="points=[[0,0],[0.25,0],[0.5,0],[0.75,0],[1,0],[1,0.25],[1,0.5],[1,0.75],[1,1],[0.75,1],[0.5,1],[0.25,1],[0,1],[0,0.75],[0,0.5],[0,0.25]];outlineConnect=0;gradientColor=none;html=1;whiteSpace=wrap;fontSize=12;fontStyle=0;container=1;pointerEvents=0;collapsible=0;recursiveResize=0;shape=mxgraph.aws4.group;grIcon=mxgraph.aws4.group_vpc2;strokeColor=#8C4FFF;fillColor=none;verticalAlign=top;align=left;spacingLeft=30;fontColor=#AAB7B8;dashed=0;" parent="duerMGeqgHKZfetzCVLF-1" vertex="1">
          <mxGeometry x="72.5" y="40" width="685" height="530" as="geometry" />
        </mxCell>
        <mxCell id="duerMGeqgHKZfetzCVLF-13" value="가용 영역 2" style="fillColor=none;strokeColor=#147EBA;dashed=1;verticalAlign=top;fontStyle=0;fontColor=#147EBA;whiteSpace=wrap;html=1;strokeWidth=2;" parent="duerMGeqgHKZfetzCVLF-3" vertex="1">
          <mxGeometry x="-20" y="330" width="705" height="180" as="geometry" />
        </mxCell>
        <mxCell id="duerMGeqgHKZfetzCVLF-15" value="가용 영역 1" style="fillColor=none;strokeColor=#147EBA;dashed=1;verticalAlign=top;fontStyle=0;fontColor=#147EBA;whiteSpace=wrap;html=1;strokeWidth=2;" parent="duerMGeqgHKZfetzCVLF-3" vertex="1">
          <mxGeometry x="-20" y="40" width="705" height="180" as="geometry" />
        </mxCell>
        <mxCell id="duerMGeqgHKZfetzCVLF-17" value="" style="sketch=0;outlineConnect=0;fontColor=#232F3E;gradientColor=none;fillColor=#8C4FFF;strokeColor=none;dashed=0;verticalLabelPosition=bottom;verticalAlign=top;align=center;html=1;fontSize=12;fontStyle=0;aspect=fixed;pointerEvents=1;shape=mxgraph.aws4.application_load_balancer;" parent="duerMGeqgHKZfetzCVLF-3" vertex="1">
          <mxGeometry x="117.5" y="251" width="40" height="40" as="geometry" />
        </mxCell>
        <mxCell id="duerMGeqgHKZfetzCVLF-23" value="Application&lt;div&gt;Load Balancer&lt;/div&gt;" style="text;html=1;align=center;verticalAlign=middle;resizable=0;points=[];autosize=1;strokeColor=none;fillColor=none;fontStyle=1" parent="duerMGeqgHKZfetzCVLF-3" vertex="1">
          <mxGeometry x="87.5" y="290" width="100" height="40" as="geometry" />
        </mxCell>
        <mxCell id="duerMGeqgHKZfetzCVLF-25" value="Amazon EFS" style="text;html=1;align=center;verticalAlign=middle;resizable=0;points=[];autosize=1;strokeColor=none;fillColor=none;fontStyle=1" parent="duerMGeqgHKZfetzCVLF-3" vertex="1">
          <mxGeometry x="382" y="290" width="90" height="30" as="geometry" />
        </mxCell>
        <mxCell id="duerMGeqgHKZfetzCVLF-4" value="Public subnet" style="points=[[0,0],[0.25,0],[0.5,0],[0.75,0],[1,0],[1,0.25],[1,0.5],[1,0.75],[1,1],[0.75,1],[0.5,1],[0.25,1],[0,1],[0,0.75],[0,0.5],[0,0.25]];outlineConnect=0;gradientColor=none;html=1;whiteSpace=wrap;fontSize=12;fontStyle=0;container=1;pointerEvents=0;collapsible=0;recursiveResize=0;shape=mxgraph.aws4.group;grIcon=mxgraph.aws4.group_security_group;grStroke=0;strokeColor=#7AA116;fillColor=#F2F6E8;verticalAlign=top;align=left;spacingLeft=30;fontColor=#248814;dashed=0;" parent="duerMGeqgHKZfetzCVLF-3" vertex="1">
          <mxGeometry x="35" y="355" width="130" height="130" as="geometry" />
        </mxCell>
        <mxCell id="duerMGeqgHKZfetzCVLF-26" value="" style="sketch=0;outlineConnect=0;fontColor=#232F3E;gradientColor=none;fillColor=#8C4FFF;strokeColor=none;dashed=0;verticalLabelPosition=bottom;verticalAlign=top;align=center;html=1;fontSize=12;fontStyle=0;aspect=fixed;pointerEvents=1;shape=mxgraph.aws4.nat_gateway;" parent="duerMGeqgHKZfetzCVLF-4" vertex="1">
          <mxGeometry x="45.5" y="45.5" width="39" height="39" as="geometry" />
        </mxCell>
        <mxCell id="duerMGeqgHKZfetzCVLF-27" value="NAT Gateway" style="text;html=1;align=center;verticalAlign=middle;resizable=0;points=[];autosize=1;strokeColor=none;fillColor=none;fontStyle=1" parent="duerMGeqgHKZfetzCVLF-4" vertex="1">
          <mxGeometry x="15" y="95" width="100" height="30" as="geometry" />
        </mxCell>
        <mxCell id="duerMGeqgHKZfetzCVLF-6" value="Private subnet" style="points=[[0,0],[0.25,0],[0.5,0],[0.75,0],[1,0],[1,0.25],[1,0.5],[1,0.75],[1,1],[0.75,1],[0.5,1],[0.25,1],[0,1],[0,0.75],[0,0.5],[0,0.25]];outlineConnect=0;gradientColor=none;html=1;whiteSpace=wrap;fontSize=12;fontStyle=0;container=1;pointerEvents=0;collapsible=0;recursiveResize=0;shape=mxgraph.aws4.group;grIcon=mxgraph.aws4.group_security_group;grStroke=0;strokeColor=#00A4A6;fillColor=#E6F6F7;verticalAlign=top;align=left;spacingLeft=30;fontColor=#147EBA;dashed=0;" parent="duerMGeqgHKZfetzCVLF-3" vertex="1">
          <mxGeometry x="185" y="355" width="290" height="130" as="geometry" />
        </mxCell>
        <mxCell id="duerMGeqgHKZfetzCVLF-29" value="" style="sketch=0;outlineConnect=0;fontColor=#232F3E;gradientColor=none;fillColor=#8C4FFF;strokeColor=none;dashed=0;verticalLabelPosition=bottom;verticalAlign=top;align=center;html=1;fontSize=12;fontStyle=0;aspect=fixed;pointerEvents=1;shape=mxgraph.aws4.elastic_network_interface;" parent="duerMGeqgHKZfetzCVLF-6" vertex="1">
          <mxGeometry x="222.5" y="15" width="39" height="39" as="geometry" />
        </mxCell>
        <mxCell id="duerMGeqgHKZfetzCVLF-37" style="edgeStyle=orthogonalEdgeStyle;rounded=0;orthogonalLoop=1;jettySize=auto;html=1;dashed=1;" parent="duerMGeqgHKZfetzCVLF-6" source="duerMGeqgHKZfetzCVLF-31" target="duerMGeqgHKZfetzCVLF-29" edge="1">
          <mxGeometry relative="1" as="geometry">
            <Array as="points">
              <mxPoint x="82" y="35" />
            </Array>
          </mxGeometry>
        </mxCell>
        <mxCell id="duerMGeqgHKZfetzCVLF-31" value="" style="sketch=0;outlineConnect=0;fontColor=#232F3E;gradientColor=none;fillColor=#ED7100;strokeColor=none;dashed=0;verticalLabelPosition=bottom;verticalAlign=top;align=center;html=1;fontSize=12;fontStyle=0;aspect=fixed;pointerEvents=1;shape=mxgraph.aws4.ecs_service;" parent="duerMGeqgHKZfetzCVLF-6" vertex="1">
          <mxGeometry x="65.65" y="45.5" width="31.69" height="39" as="geometry" />
        </mxCell>
        <mxCell id="duerMGeqgHKZfetzCVLF-32" value="앱서버" style="text;html=1;align=center;verticalAlign=middle;resizable=0;points=[];autosize=1;strokeColor=none;fillColor=none;fontStyle=1" parent="duerMGeqgHKZfetzCVLF-6" vertex="1">
          <mxGeometry x="51.5" y="84.5" width="60" height="30" as="geometry" />
        </mxCell>
        <mxCell id="duerMGeqgHKZfetzCVLF-12" value="Private subnet" style="points=[[0,0],[0.25,0],[0.5,0],[0.75,0],[1,0],[1,0.25],[1,0.5],[1,0.75],[1,1],[0.75,1],[0.5,1],[0.25,1],[0,1],[0,0.75],[0,0.5],[0,0.25]];outlineConnect=0;gradientColor=none;html=1;whiteSpace=wrap;fontSize=12;fontStyle=0;container=1;pointerEvents=0;collapsible=0;recursiveResize=0;shape=mxgraph.aws4.group;grIcon=mxgraph.aws4.group_security_group;grStroke=0;strokeColor=#00A4A6;fillColor=#E6F6F7;verticalAlign=top;align=left;spacingLeft=30;fontColor=#147EBA;dashed=0;" parent="duerMGeqgHKZfetzCVLF-3" vertex="1">
          <mxGeometry x="495" y="355" width="155" height="130" as="geometry" />
        </mxCell>
        <mxCell id="duerMGeqgHKZfetzCVLF-33" value="" style="sketch=0;outlineConnect=0;fontColor=#232F3E;gradientColor=none;fillColor=#C925D1;strokeColor=none;dashed=0;verticalLabelPosition=bottom;verticalAlign=top;align=center;html=1;fontSize=12;fontStyle=0;aspect=fixed;pointerEvents=1;shape=mxgraph.aws4.aurora_instance;" parent="duerMGeqgHKZfetzCVLF-12" vertex="1">
          <mxGeometry x="58" y="35" width="39" height="39" as="geometry" />
        </mxCell>
        <mxCell id="duerMGeqgHKZfetzCVLF-34" value="Aurora 프라이머리&lt;div&gt;DB 인스턴스&lt;/div&gt;" style="text;html=1;align=center;verticalAlign=middle;resizable=0;points=[];autosize=1;strokeColor=none;fillColor=none;fontStyle=1" parent="duerMGeqgHKZfetzCVLF-12" vertex="1">
          <mxGeometry x="17.5" y="74" width="120" height="40" as="geometry" />
        </mxCell>
        <mxCell id="r1rHEW98q0EiPhNmxj7s-13" style="edgeStyle=elbowEdgeStyle;rounded=0;orthogonalLoop=1;jettySize=auto;html=1;strokeWidth=2;strokeColor=#00CC00;dashed=1;startArrow=none;startFill=0;endArrow=classic;exitX=0.892;exitY=1.083;exitDx=0;exitDy=0;exitPerimeter=0;targetPerimeterSpacing=0;jumpSize=6;jumpStyle=none;sourcePerimeterSpacing=0;fillColor=#60a917;endFill=1;" edge="1" parent="duerMGeqgHKZfetzCVLF-12" target="duerMGeqgHKZfetzCVLF-33">
          <mxGeometry relative="1" as="geometry">
            <Array as="points">
              <mxPoint x="93" y="-15" />
            </Array>
            <mxPoint x="-27.5" y="-85" as="sourcePoint" />
            <mxPoint x="-37.5" y="225" as="targetPoint" />
          </mxGeometry>
        </mxCell>
        <mxCell id="duerMGeqgHKZfetzCVLF-28" value="" style="sketch=0;points=[[0,0,0],[0.25,0,0],[0.5,0,0],[0.75,0,0],[1,0,0],[0,1,0],[0.25,1,0],[0.5,1,0],[0.75,1,0],[1,1,0],[0,0.25,0],[0,0.5,0],[0,0.75,0],[1,0.25,0],[1,0.5,0],[1,0.75,0]];outlineConnect=0;fontColor=#232F3E;fillColor=#7AA116;strokeColor=#ffffff;dashed=0;verticalLabelPosition=bottom;verticalAlign=top;align=center;html=1;fontSize=12;fontStyle=0;aspect=fixed;shape=mxgraph.aws4.resourceIcon;resIcon=mxgraph.aws4.elastic_file_system;" parent="duerMGeqgHKZfetzCVLF-3" vertex="1">
          <mxGeometry x="407.5" y="251" width="39" height="39" as="geometry" />
        </mxCell>
        <mxCell id="duerMGeqgHKZfetzCVLF-30" value="EFS 탑제 대상" style="text;html=1;align=center;verticalAlign=middle;resizable=0;points=[];autosize=1;strokeColor=none;fillColor=none;fontStyle=1" parent="duerMGeqgHKZfetzCVLF-3" vertex="1">
          <mxGeometry x="377" y="420" width="100" height="30" as="geometry" />
        </mxCell>
        <mxCell id="duerMGeqgHKZfetzCVLF-35" style="edgeStyle=orthogonalEdgeStyle;rounded=0;orthogonalLoop=1;jettySize=auto;html=1;strokeColor=#FF0000;strokeWidth=2;targetPerimeterSpacing=0;dashed=1;jumpSize=2;dashPattern=8 8;" parent="duerMGeqgHKZfetzCVLF-3" source="duerMGeqgHKZfetzCVLF-31" target="duerMGeqgHKZfetzCVLF-26" edge="1">
          <mxGeometry relative="1" as="geometry" />
        </mxCell>
        <mxCell id="duerMGeqgHKZfetzCVLF-38" style="edgeStyle=orthogonalEdgeStyle;rounded=0;orthogonalLoop=1;jettySize=auto;html=1;entryX=0.5;entryY=1;entryDx=0;entryDy=0;entryPerimeter=0;endArrow=classic;endFill=1;startArrow=classic;startFill=1;" parent="duerMGeqgHKZfetzCVLF-3" source="duerMGeqgHKZfetzCVLF-29" target="duerMGeqgHKZfetzCVLF-28" edge="1">
          <mxGeometry relative="1" as="geometry" />
        </mxCell>
        <mxCell id="duerMGeqgHKZfetzCVLF-65" value="Public subnet" style="points=[[0,0],[0.25,0],[0.5,0],[0.75,0],[1,0],[1,0.25],[1,0.5],[1,0.75],[1,1],[0.75,1],[0.5,1],[0.25,1],[0,1],[0,0.75],[0,0.5],[0,0.25]];outlineConnect=0;gradientColor=none;html=1;whiteSpace=wrap;fontSize=12;fontStyle=0;container=1;pointerEvents=0;collapsible=0;recursiveResize=0;shape=mxgraph.aws4.group;grIcon=mxgraph.aws4.group_security_group;grStroke=0;strokeColor=#7AA116;fillColor=#F2F6E8;verticalAlign=top;align=left;spacingLeft=30;fontColor=#248814;dashed=0;" parent="duerMGeqgHKZfetzCVLF-3" vertex="1">
          <mxGeometry x="35" y="65" width="130" height="130" as="geometry" />
        </mxCell>
        <mxCell id="duerMGeqgHKZfetzCVLF-66" value="" style="sketch=0;outlineConnect=0;fontColor=#232F3E;gradientColor=none;fillColor=#8C4FFF;strokeColor=none;dashed=0;verticalLabelPosition=bottom;verticalAlign=top;align=center;html=1;fontSize=12;fontStyle=0;aspect=fixed;pointerEvents=1;shape=mxgraph.aws4.nat_gateway;" parent="duerMGeqgHKZfetzCVLF-65" vertex="1">
          <mxGeometry x="45.5" y="45.5" width="39" height="39" as="geometry" />
        </mxCell>
        <mxCell id="duerMGeqgHKZfetzCVLF-67" value="NAT Gateway" style="text;html=1;align=center;verticalAlign=middle;resizable=0;points=[];autosize=1;strokeColor=none;fillColor=none;fontStyle=1" parent="duerMGeqgHKZfetzCVLF-65" vertex="1">
          <mxGeometry x="15" y="95" width="100" height="30" as="geometry" />
        </mxCell>
        <mxCell id="duerMGeqgHKZfetzCVLF-68" value="Private subnet" style="points=[[0,0],[0.25,0],[0.5,0],[0.75,0],[1,0],[1,0.25],[1,0.5],[1,0.75],[1,1],[0.75,1],[0.5,1],[0.25,1],[0,1],[0,0.75],[0,0.5],[0,0.25]];outlineConnect=0;gradientColor=none;html=1;whiteSpace=wrap;fontSize=12;fontStyle=0;container=1;pointerEvents=0;collapsible=0;recursiveResize=0;shape=mxgraph.aws4.group;grIcon=mxgraph.aws4.group_security_group;grStroke=0;strokeColor=#00A4A6;fillColor=#E6F6F7;verticalAlign=top;align=left;spacingLeft=30;fontColor=#147EBA;dashed=0;" parent="duerMGeqgHKZfetzCVLF-3" vertex="1">
          <mxGeometry x="185" y="65" width="290" height="130" as="geometry" />
        </mxCell>
        <mxCell id="duerMGeqgHKZfetzCVLF-69" value="" style="sketch=0;outlineConnect=0;fontColor=#232F3E;gradientColor=none;fillColor=#8C4FFF;strokeColor=none;dashed=0;verticalLabelPosition=bottom;verticalAlign=top;align=center;html=1;fontSize=12;fontStyle=0;aspect=fixed;pointerEvents=1;shape=mxgraph.aws4.elastic_network_interface;" parent="duerMGeqgHKZfetzCVLF-68" vertex="1">
          <mxGeometry x="222.5" y="15" width="39" height="39" as="geometry" />
        </mxCell>
        <mxCell id="duerMGeqgHKZfetzCVLF-70" style="edgeStyle=orthogonalEdgeStyle;rounded=0;orthogonalLoop=1;jettySize=auto;html=1;dashed=1;" parent="duerMGeqgHKZfetzCVLF-68" source="duerMGeqgHKZfetzCVLF-71" target="duerMGeqgHKZfetzCVLF-69" edge="1">
          <mxGeometry relative="1" as="geometry">
            <Array as="points">
              <mxPoint x="82" y="35" />
            </Array>
          </mxGeometry>
        </mxCell>
        <mxCell id="duerMGeqgHKZfetzCVLF-71" value="" style="sketch=0;outlineConnect=0;fontColor=#232F3E;gradientColor=none;fillColor=#ED7100;strokeColor=none;dashed=0;verticalLabelPosition=bottom;verticalAlign=top;align=center;html=1;fontSize=12;fontStyle=0;aspect=fixed;pointerEvents=1;shape=mxgraph.aws4.ecs_service;" parent="duerMGeqgHKZfetzCVLF-68" vertex="1">
          <mxGeometry x="65.65" y="45.5" width="31.69" height="39" as="geometry" />
        </mxCell>
        <mxCell id="duerMGeqgHKZfetzCVLF-72" value="앱서버" style="text;html=1;align=center;verticalAlign=middle;resizable=0;points=[];autosize=1;strokeColor=none;fillColor=none;fontStyle=1" parent="duerMGeqgHKZfetzCVLF-68" vertex="1">
          <mxGeometry x="51.5" y="84.5" width="60" height="30" as="geometry" />
        </mxCell>
        <mxCell id="duerMGeqgHKZfetzCVLF-73" value="Private subnet" style="points=[[0,0],[0.25,0],[0.5,0],[0.75,0],[1,0],[1,0.25],[1,0.5],[1,0.75],[1,1],[0.75,1],[0.5,1],[0.25,1],[0,1],[0,0.75],[0,0.5],[0,0.25]];outlineConnect=0;gradientColor=none;html=1;whiteSpace=wrap;fontSize=12;fontStyle=0;container=1;pointerEvents=0;collapsible=0;recursiveResize=0;shape=mxgraph.aws4.group;grIcon=mxgraph.aws4.group_security_group;grStroke=0;strokeColor=#00A4A6;fillColor=#E6F6F7;verticalAlign=top;align=left;spacingLeft=30;fontColor=#147EBA;dashed=0;" parent="duerMGeqgHKZfetzCVLF-3" vertex="1">
          <mxGeometry x="495" y="65" width="155" height="130" as="geometry" />
        </mxCell>
        <mxCell id="duerMGeqgHKZfetzCVLF-74" value="" style="sketch=0;outlineConnect=0;fontColor=#232F3E;gradientColor=none;fillColor=#C925D1;strokeColor=none;dashed=0;verticalLabelPosition=bottom;verticalAlign=top;align=center;html=1;fontSize=12;fontStyle=0;aspect=fixed;pointerEvents=1;shape=mxgraph.aws4.aurora_instance;" parent="duerMGeqgHKZfetzCVLF-73" vertex="1">
          <mxGeometry x="58" y="35" width="39" height="39" as="geometry" />
        </mxCell>
        <mxCell id="duerMGeqgHKZfetzCVLF-75" value="Aurora 복제본" style="text;html=1;align=center;verticalAlign=middle;resizable=0;points=[];autosize=1;strokeColor=none;fillColor=none;fontStyle=1" parent="duerMGeqgHKZfetzCVLF-73" vertex="1">
          <mxGeometry x="27.5" y="79" width="100" height="30" as="geometry" />
        </mxCell>
        <mxCell id="duerMGeqgHKZfetzCVLF-76" value="EFS 탑제 대상" style="text;html=1;align=center;verticalAlign=middle;resizable=0;points=[];autosize=1;strokeColor=none;fillColor=none;fontStyle=1" parent="duerMGeqgHKZfetzCVLF-3" vertex="1">
          <mxGeometry x="377" y="130" width="100" height="30" as="geometry" />
        </mxCell>
        <mxCell id="duerMGeqgHKZfetzCVLF-77" style="edgeStyle=orthogonalEdgeStyle;rounded=0;orthogonalLoop=1;jettySize=auto;html=1;strokeColor=#FF0000;strokeWidth=2;targetPerimeterSpacing=0;dashed=1;jumpSize=2;dashPattern=8 8;" parent="duerMGeqgHKZfetzCVLF-3" source="duerMGeqgHKZfetzCVLF-71" target="duerMGeqgHKZfetzCVLF-66" edge="1">
          <mxGeometry relative="1" as="geometry" />
        </mxCell>
        <mxCell id="duerMGeqgHKZfetzCVLF-78" style="edgeStyle=orthogonalEdgeStyle;rounded=0;orthogonalLoop=1;jettySize=auto;html=1;entryX=0.5;entryY=0;entryDx=0;entryDy=0;entryPerimeter=0;startArrow=classic;startFill=1;" parent="duerMGeqgHKZfetzCVLF-3" source="duerMGeqgHKZfetzCVLF-76" target="duerMGeqgHKZfetzCVLF-28" edge="1">
          <mxGeometry relative="1" as="geometry" />
        </mxCell>
        <mxCell id="duerMGeqgHKZfetzCVLF-79" style="edgeStyle=elbowEdgeStyle;rounded=0;orthogonalLoop=1;jettySize=auto;html=1;strokeWidth=2;strokeColor=#FF0000;dashed=1;dashPattern=8 8;startArrow=none;startFill=0;endArrow=none;" parent="duerMGeqgHKZfetzCVLF-3" source="duerMGeqgHKZfetzCVLF-66" target="duerMGeqgHKZfetzCVLF-26" edge="1">
          <mxGeometry relative="1" as="geometry">
            <Array as="points">
              <mxPoint x="48" y="280" />
            </Array>
          </mxGeometry>
        </mxCell>
        <mxCell id="r1rHEW98q0EiPhNmxj7s-1" style="edgeStyle=orthogonalEdgeStyle;rounded=0;orthogonalLoop=1;jettySize=auto;html=1;strokeColor=#FF0000;strokeWidth=2;targetPerimeterSpacing=0;dashed=1;jumpSize=2;dashPattern=8 8;" edge="1" parent="duerMGeqgHKZfetzCVLF-3">
          <mxGeometry relative="1" as="geometry">
            <mxPoint x="47.5" y="289" as="sourcePoint" />
            <mxPoint x="-2.5" y="289" as="targetPoint" />
          </mxGeometry>
        </mxCell>
        <mxCell id="r1rHEW98q0EiPhNmxj7s-18" style="edgeStyle=elbowEdgeStyle;rounded=0;orthogonalLoop=1;jettySize=auto;html=1;strokeWidth=2;strokeColor=#005700;dashed=1;startArrow=none;startFill=0;endArrow=classic;targetPerimeterSpacing=0;jumpSize=6;jumpStyle=none;sourcePerimeterSpacing=0;fillColor=#008a00;endFill=1;dashPattern=1 1;" edge="1" parent="duerMGeqgHKZfetzCVLF-3">
          <mxGeometry relative="1" as="geometry">
            <Array as="points">
              <mxPoint x="618" y="382" />
            </Array>
            <mxPoint x="617.5" y="396" as="sourcePoint" />
            <mxPoint x="617.5" y="180" as="targetPoint" />
          </mxGeometry>
        </mxCell>
        <mxCell id="duerMGeqgHKZfetzCVLF-19" style="edgeStyle=orthogonalEdgeStyle;rounded=0;orthogonalLoop=1;jettySize=auto;html=1;strokeWidth=2;" parent="duerMGeqgHKZfetzCVLF-1" source="duerMGeqgHKZfetzCVLF-16" target="duerMGeqgHKZfetzCVLF-17" edge="1">
          <mxGeometry relative="1" as="geometry" />
        </mxCell>
        <mxCell id="duerMGeqgHKZfetzCVLF-16" value="" style="sketch=0;outlineConnect=0;fontColor=#232F3E;gradientColor=none;fillColor=#8C4FFF;strokeColor=none;dashed=0;verticalLabelPosition=bottom;verticalAlign=top;align=center;html=1;fontSize=12;fontStyle=0;aspect=fixed;pointerEvents=1;shape=mxgraph.aws4.internet_gateway;" parent="duerMGeqgHKZfetzCVLF-1" vertex="1">
          <mxGeometry x="10" y="291" width="40" height="40" as="geometry" />
        </mxCell>
        <mxCell id="duerMGeqgHKZfetzCVLF-24" value="IGW" style="text;html=1;align=center;verticalAlign=middle;resizable=0;points=[];autosize=1;strokeColor=none;fillColor=none;fontStyle=1" parent="duerMGeqgHKZfetzCVLF-1" vertex="1">
          <mxGeometry x="5" y="336" width="50" height="30" as="geometry" />
        </mxCell>
        <mxCell id="r1rHEW98q0EiPhNmxj7s-2" style="edgeStyle=orthogonalEdgeStyle;rounded=0;orthogonalLoop=1;jettySize=auto;html=1;strokeColor=#FF0000;strokeWidth=2;targetPerimeterSpacing=0;dashed=1;jumpSize=2;dashPattern=8 8;" edge="1" parent="1" target="r1rHEW98q0EiPhNmxj7s-7">
          <mxGeometry relative="1" as="geometry">
            <mxPoint x="10" y="359.52" as="sourcePoint" />
            <mxPoint x="-40" y="359.52" as="targetPoint" />
          </mxGeometry>
        </mxCell>
        <mxCell id="r1rHEW98q0EiPhNmxj7s-5" value="" style="fontColor=#0066CC;verticalAlign=top;verticalLabelPosition=bottom;labelPosition=center;align=center;html=1;outlineConnect=0;fillColor=#CCCCCC;strokeColor=#6881B3;gradientColor=none;gradientDirection=north;strokeWidth=2;shape=mxgraph.networks.terminal;" vertex="1" parent="1">
          <mxGeometry x="-120" y="160" width="40" height="40" as="geometry" />
        </mxCell>
        <mxCell id="r1rHEW98q0EiPhNmxj7s-9" style="edgeStyle=orthogonalEdgeStyle;rounded=0;orthogonalLoop=1;jettySize=auto;html=1;strokeWidth=2;" edge="1" parent="1" source="r1rHEW98q0EiPhNmxj7s-6" target="duerMGeqgHKZfetzCVLF-16">
          <mxGeometry relative="1" as="geometry">
            <Array as="points">
              <mxPoint x="-100" y="340" />
            </Array>
          </mxGeometry>
        </mxCell>
        <mxCell id="r1rHEW98q0EiPhNmxj7s-6" value="사용자" style="text;html=1;align=center;verticalAlign=middle;resizable=0;points=[];autosize=1;strokeColor=none;fillColor=none;fontStyle=1" vertex="1" parent="1">
          <mxGeometry x="-130" y="200" width="60" height="30" as="geometry" />
        </mxCell>
        <mxCell id="r1rHEW98q0EiPhNmxj7s-7" value="" style="sketch=0;outlineConnect=0;fontColor=#232F3E;gradientColor=none;fillColor=#232F3D;strokeColor=none;dashed=0;verticalLabelPosition=bottom;verticalAlign=top;align=center;html=1;fontSize=12;fontStyle=0;aspect=fixed;pointerEvents=1;shape=mxgraph.aws4.git_repository;" vertex="1" parent="1">
          <mxGeometry x="-117.69" y="420" width="35.38" height="46" as="geometry" />
        </mxCell>
        <mxCell id="r1rHEW98q0EiPhNmxj7s-8" value="패키지&lt;div&gt;리포티토리&lt;/div&gt;" style="text;html=1;align=center;verticalAlign=middle;resizable=0;points=[];autosize=1;strokeColor=none;fillColor=none;fontStyle=1" vertex="1" parent="1">
          <mxGeometry x="-140" y="466" width="80" height="40" as="geometry" />
        </mxCell>
        <mxCell id="r1rHEW98q0EiPhNmxj7s-10" value="" style="points=[[0,0],[0.25,0],[0.5,0],[0.75,0],[1,0],[1,0.25],[1,0.5],[1,0.75],[1,1],[0.75,1],[0.5,1],[0.25,1],[0,1],[0,0.75],[0,0.5],[0,0.25]];outlineConnect=0;gradientColor=none;html=1;whiteSpace=wrap;fontSize=12;fontStyle=0;container=1;pointerEvents=0;collapsible=0;recursiveResize=0;shape=mxgraph.aws4.groupCenter;grIcon=mxgraph.aws4.group_auto_scaling_group;grStroke=1;strokeColor=#D86613;fillColor=none;verticalAlign=top;align=center;fontColor=#D86613;dashed=1;spacingTop=25;direction=north;" vertex="1" parent="1">
          <mxGeometry x="280" y="158" width="120" height="390" as="geometry" />
        </mxCell>
        <mxCell id="duerMGeqgHKZfetzCVLF-22" value="Auto&lt;div&gt;Scaling&lt;/div&gt;&lt;div&gt;그룹&lt;/div&gt;" style="text;html=1;align=center;verticalAlign=middle;resizable=0;points=[];autosize=1;strokeColor=none;fillColor=none;fontStyle=1" parent="r1rHEW98q0EiPhNmxj7s-10" vertex="1">
          <mxGeometry x="50" y="161" width="60" height="60" as="geometry" />
        </mxCell>
        <mxCell id="duerMGeqgHKZfetzCVLF-20" style="edgeStyle=orthogonalEdgeStyle;rounded=0;orthogonalLoop=1;jettySize=auto;html=1;strokeWidth=2;" parent="1" source="duerMGeqgHKZfetzCVLF-17" target="r1rHEW98q0EiPhNmxj7s-10" edge="1">
          <mxGeometry relative="1" as="geometry">
            <Array as="points">
              <mxPoint x="240" y="340" />
              <mxPoint x="240" y="340" />
            </Array>
          </mxGeometry>
        </mxCell>
        <mxCell id="r1rHEW98q0EiPhNmxj7s-12" style="edgeStyle=elbowEdgeStyle;rounded=0;orthogonalLoop=1;jettySize=auto;html=1;strokeWidth=2;strokeColor=#00CC00;dashed=1;startArrow=none;startFill=0;endArrow=none;exitX=0.892;exitY=1.083;exitDx=0;exitDy=0;exitPerimeter=0;entryX=0.097;entryY=1;entryDx=0;entryDy=0;entryPerimeter=0;targetPerimeterSpacing=0;jumpSize=6;jumpStyle=none;endSize=0;sourcePerimeterSpacing=0;startSize=0;fillColor=#60a917;fixDash=0;metaEdit=0;backgroundOutline=0;deletable=1;noJump=0;ignoreEdge=0;orthogonal=0;enumerate=0;comic=0;snapToPoint=0;" edge="1" parent="1" source="r1rHEW98q0EiPhNmxj7s-10" target="r1rHEW98q0EiPhNmxj7s-10">
          <mxGeometry relative="1" as="geometry">
            <Array as="points">
              <mxPoint x="540" y="380" />
            </Array>
            <mxPoint x="163.5" y="210" as="sourcePoint" />
            <mxPoint x="163.5" y="500" as="targetPoint" />
          </mxGeometry>
        </mxCell>
      </root>
    </mxGraphModel>
  </diagram>
</mxfile>
